<?xml version="1.0" encoding="utf-8"?>
<!-- Generator: Adobe Illustrator 24.1.1, SVG Export Plug-In . SVG Version: 6.00 Build 0)  -->
<svg version="1.1" id="Layer_1" xmlns="http://www.w3.org/2000/svg" xmlns:xlink="http://www.w3.org/1999/xlink" x="0px" y="0px"
	 width="79px" height="65.1px" viewBox="0 0 79 65.1" style="enable-background:new 0 0 79 65.1;" xml:space="preserve">
<style type="text/css">
	.st0{fill-rule:evenodd;clip-rule:evenodd;fill:#4F291B;}
	.st1{fill-rule:evenodd;clip-rule:evenodd;fill:#8A513C;}
	.st2{fill-rule:evenodd;clip-rule:evenodd;fill:#673C2A;}
	.st3{fill:url(#SVGID_1_);}
	.st4{fill:#D42531;}
	.st5{fill:#074E80;}
	.st6{opacity:0.47;}
	.st7{fill:#FFFFFF;}
	.st8{fill-rule:evenodd;clip-rule:evenodd;fill:#676767;}
	.st9{fill-rule:evenodd;clip-rule:evenodd;fill:#595959;}
	.st10{fill-rule:evenodd;clip-rule:evenodd;fill:#8E8D8D;}
	.st11{opacity:0.58;}
	.st12{fill-rule:evenodd;clip-rule:evenodd;fill:#727371;}
	.st13{opacity:0.44;}
	.st14{fill:#7B7878;}
	.st15{fill:#D7D6D6;}
	.st16{opacity:0.39;}
	.st17{fill:#727371;}
</style>
<g>
	<g>
		<g>
			<path class="st0" d="M77.5,3.1c-0.4,0.2-0.8,0.5-1.1,0.7c-0.3,0.6-0.6,1.1-1,1.6c-1.6,2-2.7,4.2-3.7,6.6
				c-0.6,1.3-0.9,2.7-1.5,4.1c-0.7,1.3-1.1,2.7-1.6,3.9c-0.5,0.9-0.9,1.8-1.4,2.6c0.3,0.2,0.6,0.3,0.8,0.2c0.3-0.2,0.6-0.8,1-2
				c0.4-1.2,0.9-2.8,1.5-4.5c0.6-1.6,1.2-3.2,1.8-4.5c0.6-1.3,1.1-2.3,1.8-3.4c0.7-1.2,1.6-2.5,2.6-3.5c1-1,2.1-1.7,2.3-2
				C79.1,2.5,78.3,2.7,77.5,3.1z"/>
		</g>
		<g>
			<path class="st1" d="M68.2,18.6c0.8-1.1,1.1-2.4,1.6-3.6c0.2-0.3,0.3-0.6,0.5-0.9c0.1-0.2,0.2-0.5,0.3-0.7c0.6-1.3,1.6-2.5,1.6-4
				c0-1.5-0.4-2.9-0.7-4.4c0,0,0-0.1,0-0.1c-0.1-0.2-0.2-0.3-0.2-0.3c-0.1,0,0.1,0.7,0.2,1.4c0.1,0.8,0.2,1.7,0.3,2.4
				c0.1,0.7,0.1,1.1,0.1,1.5c0,0.4-0.1,0.7-0.5,1.4c-0.3,0.7-0.9,1.8-1.4,3c-0.5,1.1-0.9,2.3-1.6,3.5c-0.8,1.2-1.9,2.3-2.2,3.1
				C66,20.9,66,21.1,66,21.2C66.8,20.4,67.5,19.5,68.2,18.6z"/>
		</g>
		<g>
			<path class="st2" d="M74.1,0c-0.2,0-0.5,1-0.7,1.9c-0.1,0.9-0.1,1.8-0.1,2.6c0,0.8,0.1,1.5-0.1,2c-0.1,0.6-0.5,1.1-0.7,0.9
				c-0.2-0.1-0.3-0.9-0.6-1.6c-0.2-0.4-0.4-0.8-0.5-1.1c0,0,0,0.1,0,0.1c0.2,1.5,0.6,2.9,0.7,4.4c0,1.4-1,2.6-1.6,4
				c-0.1,0.2-0.2,0.5-0.3,0.7c-0.2,0.3-0.3,0.6-0.5,0.9c-0.5,1.2-0.8,2.5-1.6,3.6c-0.7,1-1.4,1.8-2.2,2.6c0,0.5,0.5,0.8,0.9,1.1
				c0.1,0.1,0.2,0.2,0.3,0.2c0.5-0.9,0.9-1.7,1.4-2.6c0.6-1.2,1-2.6,1.6-3.9c0.6-1.3,0.9-2.7,1.5-4.1c1-2.4,2-4.6,3.7-6.6
				c0.4-0.5,0.8-1,1-1.6c-0.3,0.2-0.5,0.4-0.7,0.6c-0.5,0.4-0.9,0.7-1,0.8c-0.2,0.1-0.2,0-0.2-0.6c0-0.6,0-1.7-0.1-2.7
				C74.4,1,74.3,0,74.1,0z"/>
		</g>
	</g>
	
		<radialGradient id="SVGID_1_" cx="-432.7739" cy="-99.4304" r="27.0561" gradientTransform="matrix(0.8857 0 0 1.2338 429.8294 159.2161)" gradientUnits="userSpaceOnUse">
		<stop  offset="0" style="stop-color:#FFFFFF"/>
		<stop  offset="0.4346" style="stop-color:#FDFDFD"/>
		<stop  offset="0.6245" style="stop-color:#F6F6F6"/>
		<stop  offset="0.7667" style="stop-color:#E9E9EA"/>
		<stop  offset="0.8844" style="stop-color:#D7D8D9"/>
		<stop  offset="0.9871" style="stop-color:#C0C1C3"/>
		<stop  offset="1" style="stop-color:#BDBEC0"/>
	</radialGradient>
	<path class="st3" d="M73.5,42.5c0,19.1-12,22.6-26.9,22.6s-27.1-3.5-27.1-22.6S31.6,8,46.5,8S73.5,23.5,73.5,42.5z"/>
	<g>
		<path class="st4" d="M45.5,31.8c-0.4-0.1-0.9-0.2-1.3-0.3c-0.6-0.2-1.1-0.4-1.6-0.6c0,0.1-0.1,0.1-0.1,0.2c-0.6,1.4-1,3-0.5,4.4
			c2.2,0.3,4.4,0.7,6.5,1c0.4,0.1,0.9,0.1,1.2-0.2c0.4-0.4,0.4-1,0.3-1.5C50,33.8,50,32.9,49.9,32C48.4,32.1,47,32,45.5,31.8z"/>
	</g>
	<g>
		<path class="st5" d="M34.2,7.7c-0.3-0.3-0.7-0.6-1-0.9c0.3,1.4,0.5,3.1-0.5,4.1c-0.2,0.2-0.5,0.5-0.6,0.8
			c-0.1,0.5,0.3,0.9,0.8,1.2c0.2-0.4,0.3-0.8,0.4-1.2C33.5,10.3,33.9,9,34.2,7.7z"/>
	</g>
	<g class="st6">
		<g>
			<path class="st7" d="M33.8,11.1c-0.1,0.1-0.2,0.2-0.3,0.3c-0.2-0.2-0.3-0.5-0.3-0.7c0.1-0.3,0.4-0.5,0.6-0.7
				c0.4-0.4,0.6-0.9,0.7-1.5C34.5,9.4,34.4,10.4,33.8,11.1z"/>
		</g>
	</g>
	<g>
		<g>
			<g>
				<ellipse class="st8" cx="51.3" cy="34.5" rx="1.9" ry="1.8"/>
			</g>
		</g>
		<g>
			<g>
				<path class="st9" d="M53.2,34.5c0.1,0.7-0.5,1.4-1.3,1.5c-0.6,0.1-1.2-0.1-1.5-0.5c0.3,0.2,0.7,0.3,1.2,0.2
					c0.9-0.1,1.5-0.8,1.3-1.5c0-0.2-0.1-0.4-0.2-0.5C53,33.9,53.2,34.2,53.2,34.5z"/>
			</g>
		</g>
		<g>
			<g>
				<path class="st10" d="M52.9,33.7c-0.3-0.3-0.7-0.5-1.2-0.5c-0.9,0-1.7,0.7-1.7,1.5c0,0.2,0.1,0.4,0.2,0.6
					c-0.3-0.3-0.5-0.6-0.5-1.1c0-0.8,0.8-1.5,1.7-1.5C52,32.8,52.6,33.1,52.9,33.7z"/>
			</g>
		</g>
	</g>
	<g>
		<g>
			<g>
				<ellipse class="st8" cx="52.2" cy="41.5" rx="2" ry="1.9"/>
			</g>
		</g>
		<g>
			<g>
				<path class="st9" d="M54.2,41.6c0.1,0.7-0.5,1.4-1.4,1.6c-0.7,0.1-1.3-0.1-1.6-0.5c0.3,0.2,0.8,0.3,1.2,0.2
					c0.9-0.2,1.5-0.9,1.4-1.6c0-0.2-0.1-0.4-0.2-0.5C53.9,40.9,54.1,41.2,54.2,41.6z"/>
			</g>
		</g>
		<g>
			<g>
				<path class="st10" d="M53.8,40.7c-0.3-0.3-0.8-0.5-1.3-0.5c-1,0-1.8,0.7-1.8,1.6c0,0.2,0.1,0.5,0.2,0.7
					c-0.3-0.3-0.5-0.7-0.5-1.1c0-0.9,0.8-1.6,1.8-1.6C52.9,39.8,53.5,40.2,53.8,40.7z"/>
			</g>
		</g>
	</g>
	<g>
		<g>
			<g>
				<ellipse class="st8" cx="52.9" cy="49.1" rx="1.6" ry="1.5"/>
			</g>
		</g>
		<g>
			<g>
				<path class="st9" d="M54.5,49.2c0.1,0.6-0.4,1.2-1.1,1.3c-0.5,0.1-1-0.1-1.3-0.4c0.3,0.2,0.6,0.2,1,0.2c0.7-0.1,1.2-0.7,1.1-1.3
					c0-0.2-0.1-0.3-0.2-0.4C54.3,48.7,54.5,48.9,54.5,49.2z"/>
			</g>
		</g>
		<g>
			<g>
				<path class="st10" d="M54.2,48.5c-0.3-0.2-0.6-0.4-1-0.4c-0.8,0-1.4,0.6-1.4,1.3c0,0.2,0,0.4,0.1,0.5c-0.3-0.2-0.4-0.5-0.4-0.9
					c0-0.7,0.6-1.3,1.4-1.3C53.5,47.7,54,48,54.2,48.5z"/>
			</g>
		</g>
	</g>
	<g class="st11">
		<ellipse transform="matrix(0.3029 -0.953 0.953 0.3029 -1.9973 44.7626)" class="st12" cx="29.6" cy="23.7" rx="3" ry="1.7"/>
	</g>
	<g>
		<g>
			<g>
				<path class="st0" d="M1.5,20.5C2,20.2,2.6,20,3.1,19.9C4,20.1,4.8,20.1,5.6,20c3.4-0.2,6.6,0.4,9.9,1.2c1.9,0.4,3.6,1.2,5.5,1.6
					c1.9,0.3,3.7,1,5.4,1.3c1.3,0.2,2.6,0.4,3.9,0.5c0,0.5-0.1,0.9-0.4,1c-0.4,0.2-1.3,0-2.9-0.5c-1.6-0.5-3.8-1.2-6-1.9
					c-2.2-0.7-4.4-1.2-6.2-1.6c-1.8-0.4-3.3-0.6-5-0.8c-1.8-0.2-3.9-0.3-5.8,0c-1.9,0.3-3.5,0.9-3.9,0.8C-0.3,21.7,0.5,21,1.5,20.5z
					"/>
			</g>
		</g>
		<g>
			<g>
				<path class="st1" d="M25.3,22.6c-1.8,0-3.4-0.6-5.1-1.1c-0.5-0.1-0.9-0.1-1.3-0.2c-0.3,0-0.7-0.2-1-0.2
					c-1.9-0.4-3.9-0.3-5.5-1.5c-1.6-1.2-2.7-2.7-4.2-4.1c0,0-0.1-0.1-0.1-0.1C8,15.1,7.9,14.9,8,14.9c0.1-0.1,0.7,0.6,1.4,1.3
					c0.7,0.7,1.6,1.5,2.3,2.2c0.7,0.6,1.1,1,1.5,1.3c0.4,0.3,0.8,0.4,1.8,0.6c1,0.2,2.7,0.4,4.3,0.8c1.6,0.4,3.2,0.9,5,1
					c1.8,0.1,4-0.2,5,0.1c0.2,0.1,0.4,0.2,0.5,0.3C28.4,22.5,26.9,22.6,25.3,22.6z"/>
			</g>
		</g>
		<g>
			<g>
				<path class="st2" d="M0.9,14.5c0.2-0.2,1.5,0.2,2.6,0.8c1.1,0.6,2,1.3,2.8,1.9c0.8,0.6,1.5,1.2,2.2,1.5C9.2,19,10,19,10,18.6
					c0-0.4-0.7-1.1-1.2-1.9c-0.3-0.5-0.6-1.1-0.8-1.4c0,0,0.1,0.1,0.1,0.1c1.4,1.4,2.6,3,4.2,4.1c1.6,1.1,3.6,1,5.5,1.5
					c0.3,0,0.7,0.2,1,0.2c0.5,0.1,0.9,0.1,1.3,0.2c1.7,0.5,3.3,1.1,5.1,1.1c1.5,0,3.1-0.1,4.5-0.3c0.5,0.4,0.5,1.2,0.5,1.8
					c0,0.2,0,0.4,0,0.5c-1.3-0.2-2.6-0.3-3.9-0.5c-1.7-0.3-3.5-1-5.4-1.3c-1.9-0.4-3.6-1.2-5.5-1.6C12.2,20.4,9,19.8,5.6,20
					c-0.8,0.1-1.7,0-2.5-0.1c0.4-0.1,0.9-0.2,1.2-0.3c0.8-0.2,1.4-0.4,1.7-0.5c0.2-0.1,0.2-0.2-0.5-0.7C5,18,3.8,17.2,2.8,16.3
					C1.7,15.5,0.7,14.7,0.9,14.5z"/>
			</g>
		</g>
	</g>
	<path class="st5" d="M50.1,34.8c0,0.5,0.1,1.2-0.3,1.5c-0.3,0.3-0.8,0.3-1.2,0.2c-2.2-0.3-4.4-0.7-6.5-1c-0.5-1.4-0.1-3,0.5-4.4
		c0.6-1.4,1.4-2.7,1.6-4.2c0.2-1.4,0-2.9-0.2-4.4c-0.2-1.7-0.5-4.8,1.4-5.7c1.3-0.6,2.8,0.6,3.3,1.9c0.9,2.1,0.6,5.3,0.8,7.6
		C49.6,29.1,49.9,31.9,50.1,34.8z"/>
	<g class="st13">
		<g>
			<path class="st14" d="M50.5,35.3c0,0.6,0.1,1.2-0.3,1.6c-0.3,0.3-0.7,0.3-1.1,0.2c-2-0.3-4-0.7-6-1c-0.5-1.5-0.1-3.2,0.4-4.6
				c0.5-1.4,1.2-2.8,1.5-4.4c0.2-1.5,0-3-0.2-4.6c-0.2-1.8-0.4-5,1.2-5.9c1.2-0.6,2.6,0.7,3,2c0.8,2.2,0.6,5.5,0.8,7.9
				C50,29.5,50.2,32.4,50.5,35.3z"/>
		</g>
	</g>
	<g class="st13">
		<g>
			<path class="st14" d="M48.6,17.4c-0.4,1.1-0.2,2.3,0.1,3.5c0.9,3.7,2.3,7.8,4.1,12.5c0.2,0.4,0.4,0.9,0.8,1.1
				c0.3,0.1,0.7,0,1-0.1c1.1-0.4,2.2-0.8,3.3-1.1c0.9-0.3,1.9-0.7,2.1-1.6c0.2-0.7-0.2-1.5-0.5-2.2c-2.1-4.1-4-7.7-5.7-10.8
				c-0.5-1-1-2.7-2.3-3C50.4,15.3,48.7,16.4,48.6,17.4z"/>
		</g>
	</g>
	<g>
		<path class="st5" d="M48.3,20.9c1.1-0.6,2.1-1.1,3.3-1.6c0.3-0.2,0.7-0.2,1-0.3c0.3-0.1,0.7-0.2,1-0.3c0,0,0-0.1-0.1-0.1
			c-0.2-0.3-0.3-0.7-0.5-1.1c-0.1,0-0.2,0-0.3,0.1c-0.1,0-0.2,0.2-0.3,0.2c-1,0.2-2,0.6-3,1c-0.1,0-0.3,0-0.4,0
			c-0.1,0-0.2,0.1-0.3,0.1c-0.2,0.1-0.5,0.1-0.7,0.1C47.9,19.6,48.1,20.2,48.3,20.9C48.3,20.9,48.3,20.9,48.3,20.9z"/>
	</g>
	<g>
		<path class="st5" d="M48.9,18.7c0.1-0.1,0.3,0,0.4,0c1-0.3,2-0.8,3-1c0.1,0,0.2-0.2,0.3-0.2c0.1,0,0.2,0,0.3-0.1
			c-0.4-0.8-0.9-1.7-1.8-1.9c-1.2-0.3-2.9,0.8-3,1.8c-0.2,0.5-0.2,1-0.2,1.6c0.2,0,0.5-0.1,0.7-0.1C48.7,18.7,48.9,18.7,48.9,18.7z"
			/>
	</g>
	<g>
		<path class="st15" d="M53.5,18.7c-0.3,0.1-0.7,0.2-1,0.3c-0.3,0.1-0.7,0.2-1,0.3c-1.1,0.5-2.2,1-3.3,1.6c0.1,0.6,0.3,1.2,0.5,1.8
			c1.9-0.8,3.8-1.5,5.7-2.2C54.1,19.9,53.8,19.3,53.5,18.7z"/>
	</g>
	<g>
		<path class="st5" d="M50.7,27.2c1.2-0.6,2.2-1.3,3.4-2c0.7-0.4,1.4-1,2.1-1.5c-0.6-1.1-1.2-2.2-1.7-3.3c-1.9,0.7-3.8,1.4-5.7,2.2
			c0.4,1.5,0.9,3.1,1.5,4.8C50.4,27.4,50.5,27.3,50.7,27.2z"/>
	</g>
	<g>
		<path class="st15" d="M57.9,27c-0.6-1.1-1.2-2.2-1.7-3.3c-0.7,0.5-1.3,1.1-2.1,1.5c-1.2,0.7-2.2,1.4-3.4,2
			c-0.2,0.1-0.3,0.2-0.5,0.3c0.4,1.2,0.9,2.4,1.3,3.7c2.2-1,4.1-2.4,6-3.9C57.7,27.2,57.8,27.1,57.9,27z"/>
	</g>
	<g>
		<path class="st5" d="M57.9,27c-0.1,0.1-0.2,0.2-0.3,0.2c-1.9,1.5-3.8,2.9-6,3.9c0.3,0.7,0.5,1.4,0.8,2.2c0.2,0.4,0.4,0.9,0.8,1.1
			c0.3,0.1,0.7,0,1-0.1c1.1-0.4,2.2-0.8,3.3-1.1c0.9-0.3,1.9-0.7,2.1-1.6c0.2-0.7-0.2-1.5-0.5-2.2C58.7,28.6,58.3,27.8,57.9,27z"/>
	</g>
	<g>
		<path class="st15" d="M43.7,28.3c-0.3,0.9-0.7,1.7-1.1,2.5c0.5,0.2,1.1,0.5,1.6,0.6c0.4,0.1,0.9,0.2,1.3,0.3
			c1.5,0.3,2.9,0.3,4.4,0.2c-0.1-1.2-0.2-2.4-0.3-3.6C47.6,28.5,45.6,28.5,43.7,28.3z"/>
	</g>
	<g>
		<path class="st5" d="M49.3,24.4c-1.7,0.1-3.4,0.1-5.2,0.1c0.1,0.8,0.1,1.6,0,2.3c-0.1,0.5-0.2,1-0.4,1.5c2,0.2,3.9,0.2,5.9,0.1
			c-0.1-0.7-0.1-1.5-0.2-2.2C49.3,25.7,49.3,25.1,49.3,24.4z"/>
	</g>
	<g>
		<path class="st15" d="M48.8,22.2c-0.3,0-0.7,0-1-0.1c-1.4-0.2-2.8-0.3-4.1-0.7c0,0.4,0.1,0.7,0.1,1.1c0.1,0.7,0.2,1.4,0.2,2
			c1.7,0,3.4,0.1,5.2-0.1c0-0.7,0-1.5-0.1-2.2C49.1,22.2,48.9,22.2,48.8,22.2z"/>
	</g>
	<g>
		<path class="st5" d="M47.2,19.1c-0.3,0-0.6,0-0.9,0c0,0,0-0.1,0-0.1c-0.3,0-0.7-0.1-1-0.2v-0.1c-0.1,0-0.2,0-0.3,0
			c-0.2-0.2-0.3-0.2-0.5-0.3c0,0,0-0.1,0-0.1c-0.1-0.1-0.3-0.2-0.4-0.3c-0.4,1-0.4,2.3-0.3,3.4c1.3,0.5,2.7,0.5,4.1,0.7
			c0.3,0,0.7,0,1,0.1c0.1,0,0.3,0,0.4,0c-0.1-1-0.2-2-0.4-2.9C48.3,19.3,47.8,19.2,47.2,19.1z"/>
	</g>
	<g>
		<path class="st5" d="M45.2,16.7c-0.5,0.2-0.9,0.7-1.1,1.2c0.1,0.1,0.2,0.2,0.4,0.3c0,0,0,0.1,0,0.1c0.2,0.1,0.4,0.2,0.5,0.3
			c0.1,0,0.2,0,0.3,0v0.1c0.3,0.1,0.7,0.2,1,0.2c0,0,0,0.1,0,0.1c0.3,0.1,0.5,0,0.9,0c0.5,0.1,1,0.1,1.5,0.1
			c-0.1-0.2-0.1-0.4-0.2-0.6C48,17.4,46.6,16.1,45.2,16.7z"/>
	</g>
	<g>
		<path class="st15" d="M36.4,9.3c-0.8-0.5-1.5-1-2.2-1.7c-0.4,1.3-0.7,2.6-0.9,4c-0.1,0.4-0.2,0.8-0.4,1.2c0,0,0.1,0,0.1,0.1
			c0.9,0.6,1.9,1.1,2.9,1.6c0.1-0.3,0.1-0.5,0.2-0.8C36.5,12.2,36.5,10.8,36.4,9.3z"/>
	</g>
	<g>
		<path class="st5" d="M38.3,10.3c-0.6-0.2-1.1-0.5-1.6-0.8c-0.1,0-0.1-0.1-0.2-0.1c0.1,1.5,0.1,2.9-0.3,4.3
			c-0.1,0.3-0.1,0.5-0.2,0.8c0.7,0.3,1.4,0.6,2.1,0.9c0.1-0.8,0.2-1.6,0.3-2.4C38.4,12.1,38.4,11.2,38.3,10.3z"/>
	</g>
	<g>
		<path class="st15" d="M42.2,15.6c-0.2-1.4-0.2-2.9-0.5-4.2c-1.2-0.3-2.3-0.7-3.4-1.1c0.1,0.9,0.1,1.8,0,2.7
			c-0.1,0.8-0.2,1.6-0.3,2.4c1.5,0.6,3,1.1,4.5,1.4C42.4,16.4,42.2,16,42.2,15.6z"/>
	</g>
	<g>
		<path class="st5" d="M45.3,16c0-0.1-0.1-0.3-0.2-0.4c-0.7-1.1-0.3-2.4-0.4-3.6c-0.7-0.1-1.3-0.2-2-0.4c-0.3-0.1-0.7-0.2-1-0.2
			c0.3,1.4,0.2,2.8,0.5,4.2c0.1,0.4,0.2,0.8,0.4,1.1c1.1,0.2,2.3,0.4,3.4,0.5C45.7,16.8,45.5,16.4,45.3,16z"/>
	</g>
	<g>
		<path class="st15" d="M51.7,16.9C51.7,16.9,51.7,16.8,51.7,16.9c0-1.4-0.5-2.7-1.6-3.6c-0.3-0.2-0.7-0.6-0.7-1
			c-0.1,0-0.1-0.1-0.2-0.1c-1.5,0.2-3,0.1-4.5-0.1c0.1,1.2-0.3,2.5,0.4,3.6c0.1,0.1,0.1,0.3,0.2,0.4c0.2,0.4,0.5,0.9,0.7,1.3
			c0,0,0.1,0,0.1,0C47.9,17.4,49.8,17.3,51.7,16.9z"/>
	</g>
	<g>
		<path class="st5" d="M54,14.3c-0.8-0.7-1.2-1.7-1.6-2.6c0-0.1,0-0.2,0-0.3c-0.5,0.2-0.9,0.3-1.4,0.4c-0.6,0.1-1.1,0.2-1.7,0.3
			c0,0.1,0,0.2,0.2,0.1c0,0.5,0.3,0.8,0.7,1c1.1,0.9,1.6,2.2,1.6,3.6c0,0,0,0,0,0c1.2-0.3,2.4-0.6,3.5-1.1
			C54.8,15.2,54.4,14.7,54,14.3z"/>
	</g>
	<g>
		<path class="st15" d="M56.8,9.5c0-0.5-0.3-0.9-0.8-1.2c-0.7,0.7-1.3,1.9-1.8,2.3c-0.6,0.3-1.2,0.6-1.8,0.8c0,0.1,0,0.2,0,0.3
			c0.4,0.9,0.8,1.9,1.6,2.6c0.5,0.4,0.8,0.9,1.2,1.4c1.4-0.6,2.6-1.4,3.8-2.3C57.7,12.4,56.8,11.2,56.8,9.5z"/>
	</g>
	<g>
		<path class="st5" d="M59.5,10.6c-2.3-0.8-0.3-2.3-2.5-2.8C56.6,7.8,56.3,8,56,8.3c0.5,0.3,0.8,0.7,0.8,1.2c0,1.7,0.9,2.9,2.1,3.9
			c0,0,0.1-0.1,0.1-0.1C60,12.5,60.8,11,59.5,10.6z"/>
	</g>
	<g class="st6">
		<g>
			<path class="st7" d="M58.3,13.2c-3.2,2.8-7.7,4-12.1,3.8c-4.3-0.2-8.5-1.8-12.2-4c-0.4-0.3-0.9-0.7-0.8-1.1
				c0-0.2,0.1-0.3,0.3-0.4c0.2,0.2,0.4,0.3,0.5,0.4c3.7,2.2,7.9,3.7,12.2,4c4.3,0.2,8.9-1,12.1-3.8c0.3-0.3,0.7-0.7,0.9-1.1
				C59.7,11.5,59.1,12.5,58.3,13.2z"/>
		</g>
	</g>
	<g class="st16">
		<g>
			<path class="st17" d="M59.4,13.2c-0.1-0.2-0.3-0.4-0.6-0.5c-2.3-0.8-0.3-2.3-2.5-2.8c-1-0.2-1.9,2.2-2.8,2.7
				c-1,0.6-2.1,1-3.2,1.3c-2.7,0.6-5.5,0.4-8.2-0.2c-2.1-0.5-4.2-1.1-6-2.2c-0.9-0.5-1.7-1.1-2.5-1.8c0.2-0.9,0-1.9-0.2-2.8
				c1,1.1,2.1,2,3.4,2.7c1.9,1.1,3.9,1.8,6,2.2c2.7,0.6,5.5,0.8,8.2,0.2c1.1-0.3,2.2-0.7,3.2-1.3C55.1,10.3,56,7.8,57,8
				c2.3,0.5,0.3,2,2.5,2.8C60.7,11.2,60.2,12.4,59.4,13.2z"/>
		</g>
	</g>
	<g class="st6">
		<g>
			<path class="st7" d="M45.6,27.1c-0.2,2.5-0.8,4.9-2.1,7c-0.1,0.2-0.3,0.4-0.5,0.5c-0.5,0.2-0.9-0.4-0.9-0.9s0.4-0.9,0.7-1.3
				c2-2.8,2.1-6.4,2.2-9.8c0-0.3-0.1-2,0.1-2.1c0.4-0.1,0.4,1.5,0.4,1.8C45.6,23.8,45.6,25.4,45.6,27.1z"/>
		</g>
	</g>
	<g class="st6">
		<g>
			<path class="st7" d="M50.9,25c0.8,2.3,1.9,4.6,3.7,6.3c0.2,0.2,0.4,0.3,0.6,0.3c0.5,0,0.8-0.6,0.6-1.1c-0.2-0.5-0.6-0.8-1-1.1
				c-2.6-2.2-3.6-5.7-4.5-9c-0.1-0.3-0.4-2-0.6-2c-0.4,0,0,1.6,0,1.9C50.1,21.9,50.5,23.4,50.9,25z"/>
		</g>
	</g>
	<g class="st16">
		<g>
			<path class="st17" d="M49.7,35.3c-0.9,0.4-1.8,0.6-2.8,0.5c-0.2,0-0.4-0.1-0.6-0.2c-0.4-0.3-0.1-1,0.3-1.2c0.5-0.2,1,0,1.5,0.1
				c-0.4-0.1-0.6-3.4-0.6-3.8c-0.1-1.3-0.2-2.6-0.1-4c0.1-2.4,0.3-5.1,1.2-7.4c0.1,0.8-0.1,1.8-0.1,2.6c-0.1,1.5-0.1,3-0.1,4.4
				C48.5,29.4,48.9,32.4,49.7,35.3z"/>
		</g>
	</g>
	<g class="st16">
		<g>
			<path class="st17" d="M59.5,31.3c-0.6,0.7-1.5,1.3-2.4,1.5c-0.2,0.1-0.4,0.1-0.6,0C56,32.8,56,32,56.4,31.7
				c0.4-0.4,0.9-0.4,1.4-0.4c-0.4,0-1.8-2.9-2-3.3c-0.6-1.2-1.2-2.4-1.6-3.6c-0.8-2.2-1.7-4.9-1.7-7.3c0.4,0.7,0.6,1.7,0.9,2.5
				c0.5,1.4,1,2.8,1.6,4.1C56.2,26.4,57.7,28.9,59.5,31.3z"/>
		</g>
	</g>
	<g class="st16">
		<g>
			<path class="st17" d="M49.6,21.1c0.2,1.7,0,3.5,0.4,5.2c-0.2,0-0.3-0.2-0.4-0.4c-0.5-1.4-0.5-2.9-0.6-4.3c-0.1-1.5-0.3-3-1.1-4.2
				c0.1,0.1,0.8-0.3,1-0.1c0.2,0.2,0.1,0.8,0.1,1.1C49.2,19.3,49.5,20.2,49.6,21.1z"/>
		</g>
	</g>
</g>
</svg>
