<?xml version="1.0" encoding="utf-8"?>
<!-- Generator: Adobe Illustrator 24.1.1, SVG Export Plug-In . SVG Version: 6.00 Build 0)  -->
<svg version="1.1" id="Layer_1" xmlns="http://www.w3.org/2000/svg" xmlns:xlink="http://www.w3.org/1999/xlink" x="0px" y="0px"
	 width="37.2px" height="30.9px" viewBox="0 0 37.2 30.9" style="enable-background:new 0 0 37.2 30.9;" xml:space="preserve">
<style type="text/css">
	.st0{clip-path:url(#SVGID_2_);fill-rule:evenodd;clip-rule:evenodd;fill:#BDBEC0;}
	.st1{clip-path:url(#SVGID_2_);fill-rule:evenodd;clip-rule:evenodd;fill:#C0C2C4;}
	.st2{clip-path:url(#SVGID_2_);fill-rule:evenodd;clip-rule:evenodd;fill:#C5C6C8;}
	.st3{clip-path:url(#SVGID_2_);fill-rule:evenodd;clip-rule:evenodd;fill:#C8C9CA;}
	.st4{clip-path:url(#SVGID_2_);fill-rule:evenodd;clip-rule:evenodd;fill:#CBCDCE;}
	.st5{clip-path:url(#SVGID_2_);fill-rule:evenodd;clip-rule:evenodd;fill:#CFD0D3;}
	.st6{clip-path:url(#SVGID_2_);fill-rule:evenodd;clip-rule:evenodd;fill:#D3D3D5;}
	.st7{clip-path:url(#SVGID_2_);fill-rule:evenodd;clip-rule:evenodd;fill:#D6D7D7;}
	.st8{clip-path:url(#SVGID_2_);fill-rule:evenodd;clip-rule:evenodd;fill:#D8D9D9;}
	.st9{clip-path:url(#SVGID_2_);fill-rule:evenodd;clip-rule:evenodd;fill:#DBDDDD;}
	.st10{clip-path:url(#SVGID_2_);fill-rule:evenodd;clip-rule:evenodd;fill:#DDDEDF;}
	.st11{clip-path:url(#SVGID_2_);fill-rule:evenodd;clip-rule:evenodd;fill:#E0E1E1;}
	.st12{clip-path:url(#SVGID_2_);fill-rule:evenodd;clip-rule:evenodd;fill:#E2E3E4;}
	.st13{clip-path:url(#SVGID_2_);fill-rule:evenodd;clip-rule:evenodd;fill:#E5E5E6;}
	.st14{clip-path:url(#SVGID_2_);fill-rule:evenodd;clip-rule:evenodd;fill:#E6E7E7;}
	.st15{clip-path:url(#SVGID_2_);fill-rule:evenodd;clip-rule:evenodd;fill:#E8E9E9;}
	.st16{clip-path:url(#SVGID_2_);fill-rule:evenodd;clip-rule:evenodd;fill:#EAEAEB;}
	.st17{clip-path:url(#SVGID_2_);fill-rule:evenodd;clip-rule:evenodd;fill:#ECECED;}
	.st18{clip-path:url(#SVGID_2_);fill-rule:evenodd;clip-rule:evenodd;fill:#EDEEEE;}
	.st19{clip-path:url(#SVGID_2_);fill-rule:evenodd;clip-rule:evenodd;fill:#F0EFF0;}
	.st20{clip-path:url(#SVGID_2_);fill-rule:evenodd;clip-rule:evenodd;fill:#F1F0F1;}
	.st21{clip-path:url(#SVGID_2_);fill-rule:evenodd;clip-rule:evenodd;fill:#F2F2F2;}
	.st22{clip-path:url(#SVGID_2_);fill-rule:evenodd;clip-rule:evenodd;fill:#F3F3F3;}
	.st23{clip-path:url(#SVGID_2_);fill-rule:evenodd;clip-rule:evenodd;fill:#F4F4F4;}
	.st24{clip-path:url(#SVGID_2_);fill-rule:evenodd;clip-rule:evenodd;fill:#F5F6F6;}
	.st25{clip-path:url(#SVGID_2_);fill-rule:evenodd;clip-rule:evenodd;fill:#F6F6F6;}
	.st26{clip-path:url(#SVGID_2_);fill-rule:evenodd;clip-rule:evenodd;fill:#F7F8F8;}
	.st27{clip-path:url(#SVGID_2_);fill-rule:evenodd;clip-rule:evenodd;fill:#F7F8F9;}
	.st28{clip-path:url(#SVGID_2_);fill-rule:evenodd;clip-rule:evenodd;fill:#F9F9FA;}
	.st29{clip-path:url(#SVGID_2_);fill-rule:evenodd;clip-rule:evenodd;fill:#FAFBFC;}
	.st30{clip-path:url(#SVGID_2_);fill-rule:evenodd;clip-rule:evenodd;fill:#FBFCFC;}
	.st31{clip-path:url(#SVGID_2_);fill-rule:evenodd;clip-rule:evenodd;fill:#FDFEFF;}
	.st32{clip-path:url(#SVGID_2_);fill-rule:evenodd;clip-rule:evenodd;fill:#FFFFFF;}
	.st33{fill-rule:evenodd;clip-rule:evenodd;fill:#F36C4A;}
	.st34{opacity:3.000000e-02;}
	.st35{fill-rule:evenodd;clip-rule:evenodd;fill:#E86224;}
	.st36{fill-rule:evenodd;clip-rule:evenodd;fill:#FDCC97;}
	.st37{fill-rule:evenodd;clip-rule:evenodd;fill:#F89748;}
	.st38{fill-rule:evenodd;clip-rule:evenodd;fill:#333333;}
	.st39{fill-rule:evenodd;clip-rule:evenodd;fill:#010101;}
	.st40{fill-rule:evenodd;clip-rule:evenodd;fill:#7E7E7E;}
	.st41{fill-rule:evenodd;clip-rule:evenodd;fill:#676767;}
	.st42{fill-rule:evenodd;clip-rule:evenodd;fill:#595959;}
	.st43{fill-rule:evenodd;clip-rule:evenodd;fill:#8E8D8D;}
	.st44{opacity:0.39;}
	.st45{fill:#727371;}
</style>
<g>
	<g>
		<g>
			<defs>
				<path id="SVGID_1_" d="M14.8,0.3c0.4-0.1,0.7-0.1,1.1-0.2c8.9-0.8,16.7,5,17.8,13.3c1.1,8.4-5.5,16.2-14.6,17.4
					C9.8,31.9,1.5,26,0.5,17.6C-0.3,11.8,2.6,6.3,7.4,3.1C7.4,3.1,9.1,1.3,14.8,0.3z"/>
			</defs>
			<clipPath id="SVGID_2_">
				<use xlink:href="#SVGID_1_"  style="overflow:visible;"/>
			</clipPath>
			<rect x="-0.3" y="-0.9" class="st0" width="35" height="32.8"/>
			<path class="st0" d="M33,13.4c1.1,8.8-5.1,16.9-13.9,18c-4.4,0.6-8.6-0.7-11.9-3.2s-5.5-6.3-6.1-10.7C0,8.7,6.2,0.6,15-0.5
				c4.4-0.6,8.6,0.7,11.9,3.2S32.4,9,33,13.4z"/>
			<path class="st1" d="M32.7,13.5c1.1,8.7-5,16.6-13.7,17.8c-4.3,0.6-8.5-0.7-11.7-3.2c-3.2-2.5-5.5-6.2-6-10.5
				C0.3,8.8,6.4,0.8,15-0.3c4.3-0.6,8.5,0.7,11.7,3.2C29.9,5.4,32.2,9.1,32.7,13.5z"/>
			<ellipse class="st2" cx="17" cy="15.5" rx="15.6" ry="15.6"/>
			<ellipse class="st3" cx="17" cy="15.5" rx="15.3" ry="15.4"/>
			<ellipse class="st4" cx="17" cy="15.5" rx="15.1" ry="15.2"/>
			<ellipse class="st5" cx="17" cy="15.5" rx="14.9" ry="14.9"/>
			<ellipse class="st6" cx="17" cy="15.5" rx="14.6" ry="14.7"/>
			<ellipse class="st7" cx="17" cy="15.5" rx="14.4" ry="14.4"/>
			<ellipse class="st8" cx="17" cy="15.5" rx="14.1" ry="14.2"/>
			<ellipse class="st9" cx="17" cy="15.5" rx="13.9" ry="13.9"/>
			<ellipse class="st10" cx="17" cy="15.5" rx="13.7" ry="13.7"/>
			<ellipse class="st11" cx="17" cy="15.5" rx="13.4" ry="13.5"/>
			<ellipse class="st12" cx="17" cy="15.5" rx="13.2" ry="13.2"/>
			<ellipse class="st13" cx="17" cy="15.5" rx="12.9" ry="13"/>
			<ellipse class="st14" cx="17" cy="15.5" rx="12.7" ry="12.7"/>
			<ellipse class="st15" cx="17" cy="15.5" rx="12.5" ry="12.5"/>
			<ellipse class="st16" cx="17" cy="15.5" rx="12.2" ry="12.3"/>
			<ellipse class="st17" cx="17" cy="15.5" rx="12" ry="12"/>
			<ellipse class="st18" cx="17" cy="15.5" rx="11.7" ry="11.8"/>
			<ellipse class="st19" cx="17" cy="15.5" rx="11.5" ry="11.5"/>
			<ellipse class="st20" cx="17" cy="15.5" rx="11.3" ry="11.3"/>
			<ellipse class="st21" cx="17" cy="15.5" rx="11" ry="11.1"/>
			<ellipse class="st22" cx="17" cy="15.5" rx="10.8" ry="10.8"/>
			<ellipse class="st23" cx="17" cy="15.5" rx="10.5" ry="10.6"/>
			<ellipse class="st24" cx="17" cy="15.5" rx="10.3" ry="10.3"/>
			<ellipse class="st25" cx="17" cy="15.5" rx="10.1" ry="10.1"/>
			<ellipse class="st26" cx="17" cy="15.5" rx="9.8" ry="9.9"/>
			<ellipse class="st26" cx="17" cy="15.5" rx="9.6" ry="9.6"/>
			<ellipse class="st27" cx="17" cy="15.5" rx="9.3" ry="9.4"/>
			<ellipse class="st28" cx="17" cy="15.5" rx="9.1" ry="9.1"/>
			<ellipse class="st29" cx="17" cy="15.5" rx="8.9" ry="8.9"/>
			<ellipse class="st29" cx="17" cy="15.5" rx="8.6" ry="8.7"/>
			<ellipse class="st30" cx="17" cy="15.5" rx="8.4" ry="8.4"/>
			<ellipse class="st30" cx="17" cy="15.5" rx="8.1" ry="8.2"/>
			<ellipse class="st31" cx="17" cy="15.5" rx="7.9" ry="7.9"/>
			<ellipse class="st31" cx="17" cy="15.5" rx="7.7" ry="7.7"/>
			<ellipse class="st31" cx="17" cy="15.5" rx="7.4" ry="7.5"/>
			<ellipse class="st32" cx="17" cy="15.5" rx="7.2" ry="7.2"/>
			<ellipse class="st32" cx="17" cy="15.5" rx="6.9" ry="7"/>
			<ellipse class="st32" cx="17" cy="15.5" rx="6.7" ry="6.7"/>
			<ellipse class="st32" cx="17" cy="15.5" rx="6.5" ry="6.5"/>
			<ellipse class="st32" cx="17" cy="15.5" rx="6.2" ry="6.3"/>
			<ellipse class="st32" cx="17" cy="15.5" rx="6" ry="6"/>
			<ellipse class="st32" cx="17" cy="15.5" rx="5.8" ry="5.8"/>
			<ellipse class="st32" cx="17" cy="15.5" rx="5.5" ry="5.5"/>
			<ellipse class="st32" cx="17" cy="15.5" rx="5.3" ry="5.3"/>
			<ellipse class="st32" cx="17" cy="15.5" rx="5" ry="5.1"/>
			<ellipse class="st32" cx="17" cy="15.5" rx="4.8" ry="4.8"/>
			<ellipse class="st32" cx="17" cy="15.5" rx="4.6" ry="4.6"/>
			<ellipse class="st32" cx="17" cy="15.5" rx="4.3" ry="4.3"/>
			<ellipse class="st32" cx="17" cy="15.5" rx="4.1" ry="4.1"/>
			<ellipse class="st32" cx="17" cy="15.5" rx="3.8" ry="3.8"/>
			<ellipse class="st32" cx="17" cy="15.5" rx="3.6" ry="3.6"/>
			<ellipse class="st32" cx="17" cy="15.5" rx="3.4" ry="3.4"/>
			<ellipse class="st32" cx="17" cy="15.5" rx="3.1" ry="3.1"/>
			<ellipse class="st32" cx="17" cy="15.5" rx="2.9" ry="2.9"/>
			<ellipse class="st32" cx="17" cy="15.5" rx="2.6" ry="2.6"/>
			<ellipse class="st32" cx="17" cy="15.5" rx="2.4" ry="2.4"/>
			<ellipse class="st32" cx="17" cy="15.5" rx="2.2" ry="2.2"/>
			<ellipse class="st32" cx="17" cy="15.5" rx="1.9" ry="1.9"/>
			<ellipse class="st32" cx="17" cy="15.5" rx="1.7" ry="1.7"/>
			<ellipse class="st32" cx="17" cy="15.5" rx="1.4" ry="1.4"/>
			<ellipse class="st32" cx="17" cy="15.5" rx="1.2" ry="1.2"/>
			<ellipse class="st32" cx="17" cy="15.5" rx="1" ry="1"/>
			<path class="st32" d="M17.8,15.4c0.1,0.4-0.2,0.8-0.6,0.8c-0.4,0.1-0.8-0.2-0.8-0.6c-0.1-0.4,0.2-0.8,0.6-0.8
				C17.3,14.7,17.7,15,17.8,15.4z"/>
			<path class="st32" d="M17.5,15.4c0,0.3-0.2,0.5-0.4,0.5c-0.3,0-0.5-0.2-0.5-0.4S16.7,15,17,15C17.2,15,17.5,15.2,17.5,15.4z"/>
			<path class="st32" d="M17.3,15.4c0,0.1-0.1,0.3-0.2,0.3c-0.1,0-0.3-0.1-0.3-0.2c0-0.1,0.1-0.3,0.2-0.3
				C17.1,15.2,17.3,15.3,17.3,15.4z"/>
		</g>
	</g>
	<g>
		<g>
			<g>
				<path class="st33" d="M36.1,14.2c-2.9,2.8-8,3.6-12.1,3.8c-1.1,0-1.7-0.5-2.1-1.2c0,0,0,0,0,0c-0.5,0.6-0.4,1.5-0.2,2.2
					c0.2,0.7,0.6,1.2,2.2,1c1.5-0.2,4.2-1.1,7-2.2c2.8-1.1,5.8-2.3,6.2-2.9C37.4,14.5,37,14.3,36.1,14.2z"/>
			</g>
		</g>
		<g class="st34">
			<g>
				<path class="st35" d="M36.1,14.2c-2.9,2.8-8,3.6-12.1,3.8c-1.1,0-1.7-0.5-2.1-1.2c0,0,0,0,0,0c-0.5,0.6-0.4,1.5-0.2,2.2
					c0.2,0.7,0.6,1.2,2.2,1c1.5-0.2,4.2-1.1,7-2.2c2.8-1.1,5.8-2.3,6.2-2.9C37.4,14.5,37,14.3,36.1,14.2z"/>
			</g>
		</g>
		<g>
			<g>
				<path class="st33" d="M34,14.1c-0.3,0-0.6,0-0.9,0c-2.5,0.2-5.5,0.7-7.5,1.1c-0.9,0.2-1.6,0.4-2.1,0.6
					C26.9,16.3,30.7,15.7,34,14.1z"/>
			</g>
		</g>
		<g>
			<g>
				<path class="st36" d="M34,14.1c-0.3,0-0.6,0-0.9,0c-2.5,0.2-5.5,0.7-7.5,1.1c-0.9,0.2-1.6,0.4-2.1,0.6
					C26.9,16.3,30.7,15.7,34,14.1z"/>
			</g>
		</g>
		<g>
			<g>
				<path class="st37" d="M23.4,15.9c-0.7,0.3-1.2,0.5-1.5,0.9c0.5,0.7,1,1.2,2.1,1.2c4.1-0.2,9.1-1,12.1-3.8
					c-0.6-0.1-1.3-0.1-2.1-0.1C30.7,15.7,26.9,16.3,23.4,15.9z"/>
			</g>
		</g>
	</g>
	<g>
		<g>
			<g>
				<ellipse transform="matrix(0.988 -0.1543 0.1543 0.988 -1.3658 4.4022)" class="st38" cx="27.7" cy="11" rx="1.6" ry="2.1"/>
			</g>
		</g>
		<g>
			<g>
				<path class="st39" d="M29.3,10.8c0.2,0.8-0.2,1.7-0.8,1.9c-0.5,0.2-1,0-1.4-0.4c0.3,0.2,0.7,0.2,1,0.1c0.7-0.3,1.1-1.2,0.8-1.9
					c-0.1-0.2-0.2-0.4-0.3-0.6C28.9,10.1,29.2,10.4,29.3,10.8z"/>
			</g>
		</g>
		<g>
			<g>
				<path class="st40" d="M28.8,9.9c-0.3-0.3-0.7-0.4-1.1-0.4c-0.8,0.1-1.3,1-1.2,2c0,0.3,0.1,0.5,0.2,0.7c-0.3-0.3-0.5-0.7-0.6-1.2
					c-0.2-1,0.4-1.9,1.2-2C27.9,9,28.5,9.3,28.8,9.9z"/>
			</g>
		</g>
	</g>
	<g>
		<g>
			<g>
				
					<ellipse transform="matrix(3.159657e-02 -0.9995 0.9995 3.159657e-02 5.9516 30.7699)" class="st38" cx="18.9" cy="12.3" rx="2.5" ry="1.9"/>
			</g>
		</g>
		<g>
			<g>
				<path class="st39" d="M20.8,12.4c0.1,1-0.5,1.9-1.4,2.1c-0.6,0.1-1.2-0.2-1.5-0.7c0.3,0.3,0.7,0.4,1.2,0.3
					c0.9-0.2,1.5-1.1,1.4-2.1c0-0.3-0.1-0.5-0.2-0.7C20.5,11.6,20.7,11.9,20.8,12.4z"/>
			</g>
		</g>
		<g>
			<g>
				<path class="st40" d="M20.4,11.2c-0.3-0.4-0.7-0.7-1.2-0.7c-0.9,0-1.7,0.9-1.8,2.1c0,0.3,0,0.6,0.1,0.9
					c-0.3-0.4-0.5-0.9-0.4-1.5c0-1.2,0.8-2.1,1.8-2.1C19.6,10,20.2,10.5,20.4,11.2z"/>
			</g>
		</g>
	</g>
	<g>
		<g>
			<g>
				<ellipse class="st41" cx="24.2" cy="24.5" rx="0.8" ry="0.7"/>
			</g>
		</g>
		<g>
			<g>
				<path class="st42" d="M25,24.5c0,0.3-0.2,0.5-0.5,0.6c-0.2,0-0.5,0-0.6-0.2c0.1,0.1,0.3,0.1,0.5,0.1c0.3-0.1,0.6-0.3,0.5-0.6
					c0-0.1,0-0.1-0.1-0.2C24.9,24.3,24.9,24.4,25,24.5z"/>
			</g>
		</g>
		<g>
			<g>
				<path class="st43" d="M24.8,24.2c-0.1-0.1-0.3-0.2-0.5-0.2c-0.4,0-0.7,0.3-0.7,0.6c0,0.1,0,0.2,0.1,0.3
					c-0.1-0.1-0.2-0.3-0.2-0.4c0-0.3,0.3-0.6,0.7-0.6C24.5,23.8,24.7,24,24.8,24.2z"/>
			</g>
		</g>
	</g>
	<g>
		<g>
			<g>
				<ellipse class="st41" cx="21.9" cy="24.5" rx="1.1" ry="1"/>
			</g>
		</g>
		<g>
			<g>
				<path class="st42" d="M23,24.5c0.1,0.4-0.3,0.8-0.8,0.9c-0.4,0.1-0.7-0.1-0.9-0.3c0.2,0.1,0.4,0.2,0.7,0.1
					c0.5-0.1,0.8-0.5,0.8-0.9c0-0.1-0.1-0.2-0.1-0.3C22.9,24.1,23,24.3,23,24.5z"/>
			</g>
		</g>
		<g>
			<g>
				<path class="st43" d="M22.8,24c-0.2-0.2-0.4-0.3-0.7-0.3c-0.5,0-1,0.4-1,0.9c0,0.1,0,0.3,0.1,0.4c-0.2-0.2-0.3-0.4-0.3-0.6
					c0-0.5,0.4-0.9,1-0.9C22.3,23.5,22.7,23.7,22.8,24z"/>
			</g>
		</g>
	</g>
	<g>
		<g>
			<g>
				<ellipse class="st41" cx="19.4" cy="24.3" rx="0.7" ry="0.7"/>
			</g>
		</g>
		<g>
			<g>
				<path class="st42" d="M20.1,24.4c0,0.3-0.2,0.5-0.5,0.6c-0.2,0-0.5,0-0.6-0.2c0.1,0.1,0.3,0.1,0.4,0.1c0.3-0.1,0.5-0.3,0.5-0.6
					c0-0.1,0-0.1-0.1-0.2C20,24.1,20.1,24.2,20.1,24.4z"/>
			</g>
		</g>
		<g>
			<g>
				<path class="st43" d="M19.9,24c-0.1-0.1-0.3-0.2-0.5-0.2c-0.4,0-0.6,0.3-0.6,0.6c0,0.1,0,0.2,0.1,0.2c-0.1-0.1-0.2-0.2-0.2-0.4
					c0-0.3,0.3-0.6,0.6-0.6C19.6,23.7,19.8,23.9,19.9,24z"/>
			</g>
		</g>
	</g>
	<g>
		<g>
			<g>
				<ellipse class="st41" cx="17.2" cy="24" rx="0.6" ry="0.6"/>
			</g>
		</g>
		<g>
			<g>
				<path class="st42" d="M17.8,24c0,0.2-0.2,0.5-0.5,0.5c-0.2,0-0.4,0-0.5-0.2c0.1,0.1,0.3,0.1,0.4,0.1c0.3-0.1,0.5-0.3,0.5-0.5
					c0-0.1,0-0.1-0.1-0.2C17.7,23.8,17.8,23.9,17.8,24z"/>
			</g>
		</g>
		<g>
			<g>
				<path class="st43" d="M17.7,23.7c-0.1-0.1-0.3-0.2-0.4-0.2c-0.3,0-0.6,0.2-0.6,0.5c0,0.1,0,0.1,0.1,0.2
					c-0.1-0.1-0.2-0.2-0.2-0.4c0-0.3,0.3-0.5,0.6-0.5C17.4,23.4,17.6,23.5,17.7,23.7z"/>
			</g>
		</g>
	</g>
	<g>
		<g>
			<g>
				<ellipse class="st41" cx="15" cy="23.2" rx="0.5" ry="0.5"/>
			</g>
		</g>
		<g>
			<g>
				<path class="st42" d="M15.5,23.3c0,0.2-0.1,0.4-0.4,0.4c-0.2,0-0.3,0-0.4-0.1c0.1,0.1,0.2,0.1,0.3,0.1
					C15.3,23.5,15.5,23.4,15.5,23.3c-0.1-0.1-0.1-0.2-0.2-0.2C15.5,23.1,15.5,23.2,15.5,23.3z"/>
			</g>
		</g>
		<g>
			<g>
				<path class="st43" d="M15.4,23c-0.1-0.1-0.2-0.1-0.3-0.1c-0.3,0-0.5,0.2-0.5,0.4c0,0.1,0,0.1,0,0.2c-0.1-0.1-0.1-0.2-0.1-0.3
					c0-0.2,0.2-0.4,0.5-0.4C15.2,22.8,15.4,22.9,15.4,23z"/>
			</g>
		</g>
	</g>
	<g>
		<g>
			<g>
				<path class="st41" d="M13.7,22.2c0,0.2-0.1,0.3-0.3,0.3c-0.2,0-0.3-0.1-0.3-0.3c0-0.2,0.1-0.3,0.3-0.3
					C13.6,21.9,13.7,22,13.7,22.2z"/>
			</g>
		</g>
		<g>
			<g>
				<path class="st42" d="M13.7,22.2c0,0.1-0.1,0.2-0.2,0.2c-0.1,0-0.2,0-0.2-0.1c0.1,0,0.1,0,0.2,0C13.6,22.4,13.7,22.2,13.7,22.2
					c-0.1-0.1-0.1-0.1-0.1-0.1C13.6,22.1,13.7,22.1,13.7,22.2z"/>
			</g>
		</g>
		<g>
			<g>
				<path class="st43" d="M13.6,22.1c0,0-0.1-0.1-0.2-0.1c-0.1,0-0.3,0.1-0.3,0.2c0,0,0,0.1,0,0.1c0,0-0.1-0.1-0.1-0.2
					c0-0.1,0.1-0.2,0.3-0.2C13.5,21.9,13.6,22,13.6,22.1z"/>
			</g>
		</g>
	</g>
	<g>
		<g>
			<g>
				<ellipse class="st41" cx="26.1" cy="23.9" rx="0.6" ry="0.6"/>
			</g>
		</g>
		<g>
			<g>
				<path class="st42" d="M26.7,24c0,0.2-0.2,0.4-0.4,0.5c-0.2,0-0.4,0-0.5-0.2c0.1,0.1,0.2,0.1,0.4,0.1c0.3,0,0.5-0.3,0.4-0.5
					c0-0.1,0-0.1-0.1-0.2C26.6,23.8,26.7,23.8,26.7,24z"/>
			</g>
		</g>
		<g>
			<g>
				<path class="st43" d="M26.6,23.7c-0.1-0.1-0.2-0.1-0.4-0.1c-0.3,0-0.5,0.2-0.5,0.5c0,0.1,0,0.1,0.1,0.2
					c-0.1-0.1-0.2-0.2-0.2-0.3c0-0.3,0.2-0.5,0.5-0.5C26.3,23.4,26.5,23.5,26.6,23.7z"/>
			</g>
		</g>
	</g>
	<g>
		<g>
			<g>
				<ellipse class="st41" cx="28" cy="23.2" rx="0.5" ry="0.5"/>
			</g>
		</g>
		<g>
			<g>
				<path class="st42" d="M28.5,23.3c0,0.2-0.1,0.4-0.4,0.4c-0.2,0-0.3,0-0.4-0.1c0.1,0.1,0.2,0.1,0.3,0.1
					C28.2,23.5,28.4,23.4,28.5,23.3c-0.1-0.1-0.1-0.2-0.2-0.2C28.4,23.1,28.5,23.2,28.5,23.3z"/>
			</g>
		</g>
		<g>
			<g>
				<path class="st43" d="M28.4,23c-0.1-0.1-0.2-0.1-0.3-0.1c-0.3,0-0.5,0.2-0.5,0.4c0,0.1,0,0.1,0,0.2c-0.1-0.1-0.1-0.2-0.1-0.3
					c0-0.2,0.2-0.4,0.5-0.4C28.1,22.8,28.3,22.9,28.4,23z"/>
			</g>
		</g>
	</g>
	<g>
		<g>
			<g>
				<path class="st41" d="M29.8,22.3c0,0.2-0.2,0.3-0.4,0.3c-0.2,0-0.4-0.2-0.4-0.3c0-0.2,0.2-0.3,0.4-0.3
					C29.6,21.9,29.8,22.1,29.8,22.3z"/>
			</g>
		</g>
		<g>
			<g>
				<path class="st42" d="M29.8,22.3c0,0.1-0.1,0.3-0.3,0.3c-0.1,0-0.2,0-0.3-0.1c0.1,0,0.1,0.1,0.2,0
					C29.6,22.5,29.8,22.4,29.8,22.3c-0.1-0.1-0.1-0.1-0.1-0.2C29.8,22.2,29.8,22.2,29.8,22.3z"/>
			</g>
		</g>
		<g>
			<g>
				<path class="st43" d="M29.7,22.1c-0.1-0.1-0.1-0.1-0.2-0.1c-0.2,0-0.3,0.1-0.3,0.3c0,0,0,0.1,0,0.1c-0.1-0.1-0.1-0.1-0.1-0.2
					c0-0.2,0.1-0.3,0.3-0.3C29.6,22,29.7,22,29.7,22.1z"/>
			</g>
		</g>
	</g>
	<g class="st44">
		<g>
			<path class="st45" d="M23.8,3.3c-0.7,0.6-1.7,0.8-2.6,1c-2.7,0.5-3.2,0.3-5.9,0.9c-2.7,0.5-5.3,1-7.8,2.2S2.9,10.6,2,13.1
				c-0.2,0.6-0.3,1.2-0.6,1.7c-0.3,0.5-0.8,1-1.4,1.1c0-1.8,0.6-3.6,1.2-5.3C1.6,9.3,2,8,2.9,7.1c0.9-0.9,2.9-3,3.9-3.7
				c1.9-1.4,4.4-2.7,8.7-3.2c2.1-0.3,4.4-0.1,5.6,0.3c0.5,0.2,2.6,0.6,3.1,1C24.8,1.9,24.2,2.9,23.8,3.3z"/>
		</g>
	</g>
</g>
</svg>
